<svg viewBox="0 0 42 42" fill="none" xmlns="http://www.w3.org/2000/svg">
<path d="M21 30.1731C23.9167 27.5869 26.1334 25.0494 27.65 22.5606C29.1667 20.0715 29.925 17.7673 29.925 15.6481C29.925 13.0619 29.089 10.9448 27.4168 9.2969C25.7444 7.64898 23.6055 6.82502 21 6.82502C18.3946 6.82502 16.2556 7.64898 14.5832 9.2969C12.9111 10.9448 12.075 13.0619 12.075 15.6481C12.075 17.7673 12.8334 20.0715 14.35 22.5606C15.8667 25.0494 18.0834 27.5869 21 30.1731ZM21 31.5438C17.7334 28.7729 15.2542 26.0288 13.5625 23.3113C11.8709 20.5942 11.025 18.0398 11.025 15.6481C11.025 12.7507 11.9632 10.3809 13.8395 8.53871C15.716 6.69625 18.1029 5.77502 21 5.77502C23.8972 5.77502 26.284 6.69625 28.1606 8.53871C30.0369 10.3809 30.975 12.7507 30.975 15.6481C30.975 18.0398 30.1292 20.5918 28.4375 23.3043C26.7459 26.0168 24.2667 28.7633 21 31.5438ZM21 18.375C21.7292 18.375 22.349 18.1198 22.8594 17.6094C23.3698 17.099 23.625 16.4792 23.625 15.75C23.625 15.0209 23.3698 14.4011 22.8594 13.8906C22.349 13.3802 21.7292 13.125 21 13.125C20.2709 13.125 19.6511 13.3802 19.1406 13.8906C18.6302 14.4011 18.375 15.0209 18.375 15.75C18.375 16.4792 18.6302 17.099 19.1406 17.6094C19.6511 18.1198 20.2709 18.375 21 18.375ZM11.025 36.225V35.175H30.975V36.225H11.025Z" fill="currentColor"/>
</svg>
